<?xml version="1.0" encoding="utf-8" ?>
<svg baseProfile="full" height="320px" version="1.1" width="360px" xmlns="http://www.w3.org/2000/svg" xmlns:ev="http://www.w3.org/2001/xml-events" xmlns:xlink="http://www.w3.org/1999/xlink"><defs /><rect fill="rgb(2,2,2)" height="40px" width="40px" x="0px" y="0px" /><rect fill="rgb(30,30,30)" height="40px" width="40px" x="40px" y="0px" /><rect fill="rgb(187,187,187)" height="40px" width="40px" x="80px" y="0px" /><rect fill="rgb(245,245,245)" height="40px" width="40px" x="120px" y="0px" /><rect fill="rgb(255,255,255)" height="40px" width="40px" x="160px" y="0px" /><rect fill="rgb(255,255,255)" height="40px" width="40px" x="200px" y="0px" /><rect fill="rgb(245,245,245)" height="40px" width="40px" x="240px" y="0px" /><rect fill="rgb(187,187,187)" height="40px" width="40px" x="280px" y="0px" /><rect fill="rgb(30,30,30)" height="40px" width="40px" x="320px" y="0px" /><rect fill="rgb(44,44,44)" height="40px" width="40px" x="0px" y="40px" /><rect fill="rgb(211,211,211)" height="40px" width="40px" x="40px" y="40px" /><rect fill="rgb(223,223,223)" height="40px" width="40px" x="80px" y="40px" /><rect fill="rgb(92,92,92)" height="40px" width="40px" x="120px" y="40px" /><rect fill="rgb(14,14,14)" height="40px" width="40px" x="160px" y="40px" /><rect fill="rgb(14,14,14)" height="40px" width="40px" x="200px" y="40px" /><rect fill="rgb(92,92,92)" height="40px" width="40px" x="240px" y="40px" /><rect fill="rgb(223,223,223)" height="40px" width="40px" x="280px" y="40px" /><rect fill="rgb(213,213,213)" height="40px" width="40px" x="320px" y="40px" /><rect fill="rgb(0,0,0)" height="40px" width="40px" x="0px" y="80px" /><rect fill="rgb(0,0,0)" height="40px" width="40px" x="40px" y="80px" /><rect fill="rgb(0,0,0)" height="40px" width="40px" x="80px" y="80px" /><rect fill="rgb(0,0,0)" height="40px" width="40px" x="120px" y="80px" /><rect fill="rgb(0,0,0)" height="40px" width="40px" x="160px" y="80px" /><rect fill="rgb(14,14,14)" height="40px" width="40px" x="200px" y="80px" /><rect fill="rgb(92,92,92)" height="40px" width="40px" x="240px" y="80px" /><rect fill="rgb(223,223,223)" height="40px" width="40px" x="280px" y="80px" /><rect fill="rgb(211,211,211)" height="40px" width="40px" x="320px" y="80px" /><rect fill="rgb(0,0,0)" height="40px" width="40px" x="0px" y="120px" /><rect fill="rgb(0,0,0)" height="40px" width="40px" x="40px" y="120px" /><rect fill="rgb(0,0,0)" height="40px" width="40px" x="80px" y="120px" /><rect fill="rgb(22,22,22)" height="40px" width="40px" x="120px" y="120px" /><rect fill="rgb(139,139,139)" height="40px" width="40px" x="160px" y="120px" /><rect fill="rgb(237,237,237)" height="40px" width="40px" x="200px" y="120px" /><rect fill="rgb(245,245,245)" height="40px" width="40px" x="240px" y="120px" /><rect fill="rgb(187,187,187)" height="40px" width="40px" x="280px" y="120px" /><rect fill="rgb(30,30,30)" height="40px" width="40px" x="320px" y="120px" /><rect fill="rgb(2,2,2)" height="40px" width="40px" x="0px" y="160px" /><rect fill="rgb(30,30,30)" height="40px" width="40px" x="40px" y="160px" /><rect fill="rgb(187,187,187)" height="40px" width="40px" x="80px" y="160px" /><rect fill="rgb(223,223,223)" height="40px" width="40px" x="120px" y="160px" /><rect fill="rgb(116,116,116)" height="40px" width="40px" x="160px" y="160px" /><rect fill="rgb(18,18,18)" height="40px" width="40px" x="200px" y="160px" /><rect fill="rgb(0,0,0)" height="40px" width="40px" x="240px" y="160px" /><rect fill="rgb(0,0,0)" height="40px" width="40px" x="280px" y="160px" /><rect fill="rgb(0,0,0)" height="40px" width="40px" x="320px" y="160px" /><rect fill="rgb(44,44,44)" height="40px" width="40px" x="0px" y="200px" /><rect fill="rgb(211,211,211)" height="40px" width="40px" x="40px" y="200px" /><rect fill="rgb(223,223,223)" height="40px" width="40px" x="80px" y="200px" /><rect fill="rgb(92,92,92)" height="40px" width="40px" x="120px" y="200px" /><rect fill="rgb(14,14,14)" height="40px" width="40px" x="160px" y="200px" /><rect fill="rgb(14,14,14)" height="40px" width="40px" x="200px" y="200px" /><rect fill="rgb(92,92,92)" height="40px" width="40px" x="240px" y="200px" /><rect fill="rgb(223,223,223)" height="40px" width="40px" x="280px" y="200px" /><rect fill="rgb(213,213,213)" height="40px" width="40px" x="320px" y="200px" /><rect fill="rgb(44,44,44)" height="40px" width="40px" x="0px" y="240px" /><rect fill="rgb(211,211,211)" height="40px" width="40px" x="40px" y="240px" /><rect fill="rgb(249,249,249)" height="40px" width="40px" x="80px" y="240px" /><rect fill="rgb(255,255,255)" height="40px" width="40px" x="120px" y="240px" /><rect fill="rgb(255,255,255)" height="40px" width="40px" x="160px" y="240px" /><rect fill="rgb(255,255,255)" height="40px" width="40px" x="200px" y="240px" /><rect fill="rgb(255,255,255)" height="40px" width="40px" x="240px" y="240px" /><rect fill="rgb(249,249,249)" height="40px" width="40px" x="280px" y="240px" /><rect fill="rgb(211,211,211)" height="40px" width="40px" x="320px" y="240px" /><rect fill="rgb(0,0,0)" height="40px" width="40px" x="0px" y="280px" /><rect fill="rgb(0,0,0)" height="40px" width="40px" x="40px" y="280px" /><rect fill="rgb(0,0,0)" height="40px" width="40px" x="80px" y="280px" /><rect fill="rgb(0,0,0)" height="40px" width="40px" x="120px" y="280px" /><rect fill="rgb(0,0,0)" height="40px" width="40px" x="160px" y="280px" /><rect fill="rgb(0,0,0)" height="40px" width="40px" x="200px" y="280px" /><rect fill="rgb(0,0,0)" height="40px" width="40px" x="240px" y="280px" /><rect fill="rgb(0,0,0)" height="40px" width="40px" x="280px" y="280px" /><rect fill="rgb(0,0,0)" height="40px" width="40px" x="320px" y="280px" /></svg>